<?xml version="1.0"?>
<svg xmlns="http://www.w3.org/2000/svg" xmlns:xlink="http://www.w3.org/1999/xlink" data-noselect="" viewBox="0 0 800 600" width="1600" height="1200" preserveAspectRatio="none" version="1.1" class="svg-canvas"><defs/> <g id="background" data-noselect=""><!----> <!----></g> <g id="shape_Fq1tQ3xNib" transform="translate(167.53591333247,83.44580272478996) rotate(0,228.7142078957325,233.44621858450498) scale(1,1)" filter="" style="opacity: 1;"><g><svg xmlns="http://www.w3.org/2000/svg" xmlns:xlink="http://www.w3.org/1999/xlink" version="1.1" id="&#x56FE;&#x5C42;_1" x="0px" y="0px" width="457.428415791465" height="466.89243716900995" viewBox="6.899993896484375 3 188.5 192.39999389648438" style="enable-background:new 0 0 200 200;" xml:space="preserve" class="style-removed" preserveAspectRatio="none" data-parent="shape_Fq1tQ3xNib">

<path d="M7,63.7c0,0,2.4,46.4,48.5,68.2c0,0,11.2,49.5,59.7,63.5c0,0-39.7-29.4-33.3-84.5C81.9,110.9,31.7,109.3,7,63.7  z" fill="#1257E2" stroke-width="0"/>
<path d="M87.2,3c0,0-39,25.2-35,76.1c0,0-37.3,34.4-25.3,83.4c0,0,5.8-49.1,56.7-71C83.6,91.4,59.9,47.1,87.2,3z" fill="#01D5FD" stroke-width="0"/>
<path d="M175,35.2c0,0-41.4-21-83.3,8.2c0,0-48.5-14.9-84.8,20.2c0,0,45.3-19.8,89.9,13.2  C96.8,76.7,123.2,33.8,175,35.2z" fill="#1257E2" stroke-width="0"/>
<path d="M195.4,135.7c0,0-2.1-46.4-48.1-68.5c0,0-10.9-49.6-59.3-63.9c0,0,39.5,29.7,32.8,84.7  C120.8,88,171.1,89.9,195.4,135.7z" fill="#01D5FD" stroke-width="0"/>
<path d="M116,195.3c0,0,38.8-25.5,34.4-76.3c0,0,37.1-34.7,24.7-83.6c0,0-5.4,49.1-56.1,71.4  C119,106.8,143,150.9,116,195.3z" fill="#1257E2" stroke-width="0"/>
<path d="M27,162.4c0,0,41.1,21.5,83.4-7c0,0,48.3,15.6,85-19c0,0-45.5,19.1-89.7-14.4C105.8,122,78.8,164.4,27,162.4z" fill="#01D5FD" stroke-width="0"/>
<path d="M61.9,148.7c0,0,1.9,3.8,3.9,7.3c3.4,5.7,8.6,13.3,12.3,16.1l14.2-4.8c0,0-6.9-15.1-9-24.8L61.9,148.7z" fill="#1257E2" stroke-width="0"/>
</svg></g></g></svg>
